<svg width="300" height="300" viewBox="0 0 300 300" fill="none" xmlns="http://www.w3.org/2000/svg">
<rect x="1.5" y="1.5" width="297" height="297" stroke="#DBD2C3" stroke-width="3"/>
<line x1="24.9393" y1="279.427" x2="272.427" y2="31.9393" stroke="#DBD2C3" stroke-width="3"/>
<path d="M190.24 287C188.533 287 187.04 286.413 185.76 285.24C184.587 283.96 184 282.467 184 280.76V168.28C184 166.573 184.587 165.133 185.76 163.96C187.04 162.68 188.533 162.04 190.24 162.04C191.947 162.04 193.387 162.68 194.56 163.96C195.84 165.133 196.48 166.573 196.48 168.28V222.68L254.88 164.28C255.733 163.427 256.533 162.84 257.28 162.52C258.027 162.2 258.88 162.04 259.84 162.04C261.76 162.04 263.2 162.627 264.16 163.8C265.12 164.973 265.547 166.413 265.44 168.12C265.44 169.72 264.8 171.267 263.52 172.76L219.68 216.6L264 277.08C264.96 278.467 265.333 279.96 265.12 281.56C265.013 283.053 264.427 284.333 263.36 285.4C262.293 286.467 261.013 287 259.52 287C257.173 287 255.413 286.093 254.24 284.28L210.72 225.4L196.48 239.8V280.76C196.48 282.467 195.84 283.96 194.56 285.24C193.387 286.413 191.947 287 190.24 287Z" fill="#DBD2C3"/>
<path d="M25 27V94.815L13.595 106.385C11.3111 108.66 10.019 111.746 10 114.97C10.0158 118.156 11.2883 121.206 13.5409 123.459C15.7936 125.712 18.8443 126.984 22.03 127H137.97C141.156 126.984 144.206 125.712 146.459 123.459C148.712 121.206 149.984 118.156 150 114.97C149.98 111.743 148.689 108.655 146.405 106.375L135 94.81V27H25ZM35 37H125V92H35V37ZM80 42L72.5 87H80L87.5 42H80ZM60.43 52L51.835 62.34L50 64.5L51.835 66.66L60.43 77L65.86 72.685L59.05 64.5L65.85 56.315L60.43 52ZM99.57 52L94.14 56.315L100.95 64.5L94.15 72.685L99.575 77L108.17 66.66L110 64.5L108.165 62.34L99.57 52ZM32.185 102H127.81L139.375 113.405C139.772 113.83 139.995 114.388 140 114.97C140.014 115.24 139.972 115.511 139.875 115.764C139.778 116.016 139.629 116.246 139.437 116.437C139.246 116.629 139.016 116.778 138.764 116.875C138.511 116.972 138.24 117.014 137.97 117H22.03C21.7596 117.014 21.4892 116.972 21.2364 116.875C20.9836 116.778 20.754 116.629 20.5625 116.437C20.3711 116.246 20.2221 116.016 20.1251 115.764C20.0282 115.511 19.9856 115.24 20 114.97C20 114.42 20.235 113.8 20.625 113.405L32.185 102Z" fill="#DBD2C3"/>
</svg>
